<?xml version="1.0" standalone="no"?>
<!DOCTYPE svg PUBLIC "-//W3C//DTD SVG 20010904//EN"
 "http://www.w3.org/TR/2001/REC-SVG-20010904/DTD/svg10.dtd">
<svg version="1.0" xmlns="http://www.w3.org/2000/svg"
 width="512.000000pt" height="512.000000pt" viewBox="0 0 512.000000 512.000000"
 preserveAspectRatio="xMidYMid meet">
<metadata>
Created by potrace 1.14, written by Peter Selinger 2001-2017
</metadata>
<g transform="translate(0.000000,512.000000) scale(0.100000,-0.100000)"
fill="#000000" stroke="none">
<path d="M1890 5101 c-49 -27 -80 -88 -105 -211 -2 -8 -8 -35 -15 -60 -7 -25
-13 -52 -15 -60 -2 -8 -78 -316 -170 -685 -92 -368 -168 -677 -170 -685 -10
-45 -37 -152 -50 -200 -9 -30 -27 -102 -41 -160 -14 -58 -32 -132 -40 -165 -9
-33 -17 -67 -19 -75 -2 -8 -15 -61 -29 -117 -31 -120 -31 -135 -7 -189 14 -31
30 -47 63 -63 43 -20 57 -21 396 -21 194 0 352 -2 352 -4 0 -3 -32 -90 -71
-193 -38 -103 -72 -192 -73 -198 -2 -5 -7 -21 -13 -35 -5 -14 -45 -119 -88
-235 -42 -115 -97 -261 -121 -323 -24 -62 -44 -115 -44 -119 0 -3 -12 -36 -26
-72 -15 -36 -39 -99 -54 -141 -37 -102 -123 -334 -153 -412 -13 -35 -36 -97
-51 -138 -15 -41 -32 -84 -36 -95 -38 -87 -100 -273 -100 -297 0 -38 36 -103
68 -124 56 -37 154 -22 195 29 16 20 272 372 342 471 17 23 63 87 102 142 87
119 198 272 215 298 7 10 20 28 29 40 9 11 99 136 201 276 102 140 488 671
858 1180 370 508 677 937 683 953 12 36 4 100 -17 132 -39 59 -40 60 -413 65
l-342 5 53 90 c29 50 117 198 196 330 79 132 148 249 154 260 6 11 19 31 27
45 9 14 90 149 180 300 160 269 164 276 164 332 0 66 -22 103 -76 130 -32 17
-98 18 -969 18 -891 -1 -937 -2 -970 -19z"/>
</g>
</svg>
